<?xml version="1.0" encoding="utf-8"?>
<!-- Generator: Adobe Illustrator 20.0.0, SVG Export Plug-In . SVG Version: 6.00 Build 0)  -->
<!DOCTYPE svg PUBLIC "-//W3C//DTD SVG 1.1//EN" "http://www.w3.org/Graphics/SVG/1.1/DTD/svg11.dtd">
<svg version="1.1" id="Lightning_Bolt_xA0_Image_1_"
	 xmlns="http://www.w3.org/2000/svg" xmlns:xlink="http://www.w3.org/1999/xlink" x="0px" y="0px" viewBox="0 0 2679.546 1382.791"
	 enable-background="new 0 0 2679.546 1382.791" xml:space="preserve">
<g>
	<path d="M1713.944,1161.812c-2.102-4.238-10.778-7.901-12.248-8.067c1.1,2.084,0.005,0.603,3.77,5.382
		c-2.138,0.168-2.98-1.566-3.929-2.9c-2.151-3.026-6.09-4.323-7.562-7.991c-0.912-2.271-4.426,0.016-0.154,6.378
		c3.444,5.129,2.932,12.638,9.989,15.748c4.463,1.967-4.689,13.576,3.895,11.952c6.365-1.204,9.703,2.799,13.642,6.138l-0.01,0.013
		c-4.26-0.179-6.184-5.6-12.401-4.394c-5.249,1.018-8.111-2.547-6.453-7.607c1.002-3.058,0.805-4.935-2.583-6.161
		c-2.033-0.736-19.661-35.942-16.809-42.823c5.26-12.691-8.851-10.066-13.22-11.225c-16.486-4.376-9.287-21.228-15.063-29.931
		c-21.547-32.466,20.147-14.191,5.677-34.747c-10.304-14.637,2.934-24.179-2.821-39.859c-2.641-7.195-11.788-11.163-11.769-19.633
		c0.035-15.422-16.893-0.763-29.402-13.472c-1.207-1.226-2.401-1.346-4.221-1.131c-15.353,1.812-9.051-11.977-16.477-17.396
		c-7.506-5.478-10.937-21.13-10.937-21.13c-4.558-1.678-8.463-5.925-13.457-5.315c-13.338,1.628-16.165-11.275-22.713-11.379
		c-12.059-0.191-27.233-16.585-27.302-20.65c-0.164-9.642-5.268-16.159-12.486-21.888c-22.79-18.09-10.062-41.798-32.194-33.917
		c-10.933,3.893-29.925-0.099-28.794-11.872c0.556-5.781-6.606-16.848-14.999-20.492c-38.574-16.746-30.498-20.62-36.17-31.274
		c-3.577-6.719-4.576-15.399-13.791-17.96c-2.373-0.659-3.829-3.05-5.082-5.232c-8.972-15.618-19.141,2.642-32.873-13.605
		c-16.141-19.095-10.644-22.426-26.585-28.395c-9.562-3.581-5.895-9.851-18.712-16.148c-8.03-3.945-16.813-6.132-24.446-10.846
		c-6.519-4.026-5.565,5.454-17.652,2.424c-5.39-1.351-11.219,0.385-16.644-2.266c-1.407-0.688-3.704,0.996-5.283,2.707
		c-6.93,7.508-11.963,2.751-14.458,3.563c-11.333,3.69-14.602-5.159-28.666-1.34c-7.8,2.118-18.182-3.269-20.696-10.744
		c-2.033-6.045-6.438-10.802-7.975-17.151c-2.084-8.609-18.596,3.146-28.638-14.786c-3.045-5.437-8.811-7.281-13.745-10.239
		c-25.802-15.471-44.521-4.431-59.538-29.639c-7.724-12.966-8.561-17.189-16.082-21.09c-3.396-1.761-5.198-5.984-8.165-7.215
		c-3.05-1.265-5.624,4.598-9.641,4.113c-9.383-1.132-18.305,0.542-27.113,3.62c-4.301,1.503-5.808-3.795-13.756-2.229
		c-6.889,1.357-13.379-1.417-20.168-1.34c-4.116,0.047-8.568-1.891-10.728-6.64c-2.707-5.953-14.998-1.549-17.801-17.295
		c-1.741-9.781,9.991-9.584,7.473-14.067c-2.99-5.325-5.196-1.373-7.13-1.993c-12.088-3.872-22.128,10.183-38.09-2.078
		c-13.552-10.409-14.738,6.439-30.021-1.545c-1.197-0.625-2.48-1.138-3.457-0.222c-4.17,3.911-9.462,3.274-14.464,3.793
		c-8.98,0.932-13.559-1.519-17.43-9.65c-5.141-10.798-8.846-3.492-12.104-14.387c-2.534-8.474-8.672-4.839-9.672-4.95
		c-23.506-2.596-24.146-8.364-24.19-13.826c-0.193-24.245-37.779,1.243-48.407-3.044c-11.142-4.494-24.035-2.003-34.558-9.459
		c-3.318-2.351-8.437,0.64-12.571,1.717c-17.498,4.558-27.322-0.623-28.146-1.624c-9.352-11.346-8.951,10.552-34.996,4.142
		c-2.509-0.617-4.589-0.562-7.107-0.174c-26.05,4.015-22.467-8.175-38.33-13.345c-15.387-5.015-25.05,14.914-50.396-1.394
		c-1.704-1.097-3.36-0.857-5.073-0.894c-19.911-0.438-11.628-26.945-37.16-35.418c-14.421-4.785-14.184-10.103-23.942-8.787
		c-30.371,4.094-32.3-13.556-40.576-15.325c-8.011-1.713-19.763-18.349-19.372-32.686c0.381-13.982-35.89-19.599-41.363-41.301
		c-0.878-3.48-10.149-15.089-10.228-15.077c-7.311,1.133-12.921-3.826-19.368-5.32c-18.818-4.362-24.379-16.807-33.946-25.208
		c-4.88-4.285-8.817-9.36-9.961-15.858c-1.285-7.302-7.902-11.664-9.617-18.631c-0.346-1.405-1.572-1.15-2.584-1.226
		c-9.517-0.723-16.879-4.145-20.102-14.178c-3.519-10.954-15.906-1.576-18.909-30.968c-0.928-9.082,7.276-15.501-14.027-30.878
		c-9.249-6.676-17.826-14.283-21.006-26.015c-1.405-5.183-30.021-10.423-31.898-40.406c-0.183-2.925-1.858-4.911-4.537-5.843
		c-19.808-6.894-19.613-23.839-26.657-26.15c-12.654-4.151-2.41-11.39-34.193-8.756c-5.856,0.485-11.064,0.114-15.898-3.872
		c-2.925-2.412-7.24-3.189-10.034-5.699c-16.495-14.82-30.076-18.366-23.038-33.751c6.41-14.012,27.065-11.368,37.921,2.804
		c8.131,10.614,17.175,3.826,45.905,8.399c13.378,2.129,13.551,11.419,17.681,13.06c16.066,6.385,13.313,22.196,21.858,24.901
		c10.46,3.311,23.189,17.7,23.047,31.455c-0.15,14.568,20.058,7.652,29.399,31.643c4.131,10.609,23.344,17.435,33.857,34.546
		c12.437,20.242-2.505,31.301,7.745,35.517c5.461,2.246,0.253,8.07,17.446,13.293c6.894,2.094,14.51,6.426,16.816,13.592
		c2.522,7.836,7.384,14.707,8.904,22.68c1.137,5.963,4.336,9.883,8.891,12.955c4.177,2.817,4.684,8.819,9.931,10.606
		c6.308,2.148,11.961,5.737,19.342,4.862c24.492-2.903,19.565,29.459,57.98,51.683c7.139,4.13,11.362,15.434,18.602,11.283
		c21.074-12.082,52.644,14.138,53.644,14.781c5.289,3.398,30.325,13.102,35.712,23.042c0.849,1.567,2.518,1.769,3.989,2.327
		c11.001,4.167,9.368,12.351,20.388,9.984c10.613-2.28,14.613,10.559,24.162,2.058c5.382-4.791,8.84-1.823,11.647-3.718
		c13.079-8.826,17.5,7.236,33.102,5.373c10.397-1.242,24.128,8.55,37.659,9.102c11.872,0.485,18.265,10.921,22.746,8.729
		c23.106-11.305,38.172,7.161,48.988,8.682c11.654,1.638,12.556,16.955,25.185,14.262c2.022-0.431,10.58-0.228,10.945-0.612
		c9.74-10.262,18.771,3.451,22.218-0.899c3.93-4.961,9.625-5.721,15.25-6.027c12.659-0.687,4.913-7.037,23.958-11.579
		c7.606-1.814,10.339-7.669,22.508,1.156c4.234,3.071,13.715,1.4,17.338-3.658c1.989-2.777,4.169-3.396,7.17-3.261
		c11.404,0.511,10.512-5.298,28.469-2.647c8.748,1.291,17.363,6.141,26.886,1.832c11.415-5.164,9.652,4.861,15.687,0.923
		c11.602-7.571,14.05,8.731,19.971,2.01c4.014-4.557,9.473-4.075,14.475-5.254c1.326-0.312,3.066,0.261,3.688-1.387
		c2.432-6.448,11.215-8.938,14.87-8.307c12.765,2.204,1.19-16.147,21.627-13.763c6.047,0.705,32.383-3.112,27.429-16.391
		c-1.637-4.389,0.403-8.73,0.07-13.095c-0.14-1.833,1.677-0.581,1.355,0.419c-2.385,7.402,3.297,15.439-1.779,22.627
		c-0.422,0.598-1.182,2.229,0.005,1.918c4.318-1.13,7.655,2.575,12.211,1.569c5.06-1.118,10.502,0.551,15.858,0.354
		c6.188-0.227,3.129,7.032,14.877,20.119c1.646,1.834,2.864,3.72,3.042,6.488c0.361,5.608,11.677,11.157,12.593,13.083
		c2.485,5.221,7.214,5.939,12.063,6.725c8.308,1.347,6.08,9.183,22.992-0.211c3.391-1.884,12.103-3.321,13.5-11.012
		c2.822-15.537,18.474,9.078,27.799,8.013c2.373,1.178,4.719,2.533,7.487,1.156c4.322,1.774,5.145-0.049,6.802,1.598
		c-8.714,1.353-20.103,1.205-26.542-4.563c-4.729-4.236-14.691,4.71-8.209,5.042c8.616,0.441,3.63-0.107,10.801,9.445
		c1.256,1.673,17.48,2.568,19.574,2.383c0,0,18.073-7.607,25.306-8.885c8.838-1.561,11.398,12.035,15.63,15.901
		c7.493,6.845,18.728,8.207,28.009,9.348c-3.043,1.883-25.512,2.88-36.074-17.951c-5.838-11.516-13.656,1.162-21.551-0.13
		c-6.261-1.026-11.905,11.011-18.175,4.641c-3.522-3.578-11.336,5.4-16.261-3.84c-1.989-3.733-9.254-12.182-11.795-3.036
		c-5.132,18.477-10.564,6.334-21.627,16.657c2.885,1.951,6.254,4.748,8.832,5.298c10.334,2.205,18.502,15.659,32.94,10.582
		c5.603-1.97,5.368-0.366,11.528,3.681c0.723,0.475,2.01-1.181,2.159,0.599c0.011,0.128-1.991,0.788-2.889,0.554
		c-5.33-1.39-5.064-6.902-9.939-3.194c-1.834,1.394,10.586,17.256,23.853,11.871c0.205,0.182,0.41,0.365,0.615,0.547
		c-2.185,2.177-7.552,0.995-7.05,2.89c0.104,0.39,1.491,0.923,1.732,0.722c4.33-3.603,18.675,1.464,21.082-11.172
		c0.13-0.684-0.286-2.171,1.039-1.867c2.536,0.583-3.71,7.212,1.124,9.644c1.102,0.554,0.162,0.845-0.61,0.847
		c-10.3,0.024-25.225,10.728-35.021-2.199c-2.688-3.547-7.36-4.649-9.698-8.498c-0.232-0.382-0.967-0.786-1.358-0.697
		c-15.357,3.533-35.14-23.039-55.693-18.135c-5.702,1.36-7.673-1.502-10.796-0.226c-10.063,4.111-13.488-5.621-27.466-4.673
		c-9.154,0.621-17.194-2.408-25.342-5.543c-4.431-1.705-0.435-1.528-8.724-9.649c-15.845-15.524-13.109-21.508-20.848-18.343
		c-11.943,4.884-9.602-16.726-20.189-5.958c-8.091,8.229-20.789,2.785-21.363,7.075c-0.517,3.866-2.724,6.804-5.683,9.245
		c-0.554,0.457-1.603,0.605-1.375,1.718c0.648-0.156,1.466-0.114,1.92-0.499c11.328-9.618,20.101,7.636,28.989,5.136
		c0.764-0.215,1.808-0.079,2.245,0.963c-23.958,1.587-6.857-15.457-38.819-0.477c-9.105,4.268-7.531-1.89-11.605-2.258
		c-15.432-1.393-17.08-11.835-21.995-8.302c-5.441,3.912-12.44,5.464-15.92,12.423c-5.037,10.072-16.969,0.54-19.362,0.918
		c-7.359,1.162-13.283-1.992-19.12-5.924c-3.084-2.078-7.854-1.363-9.35-6.283c-0.822-2.704-7.451,1.992-11.139,4.142
		c-12.589,7.339-20.131-12.423-27.322-4.701c-2.257,2.424-5.527,1.886-8.355,2.671c-6.595,1.831-12.198,11.006-19.343,10.782
		c-11.291-0.354-14.021,5.337-19.443,8.55c1.127,0.459,2.286,0.853,3.375,1.389c11.902,5.859,19.042,1.801,26.468,5.993
		c2.408,1.36,56.032,21.956,57.032,22.297c4.18,1.423,13.767,12.816,18.533,5.962c2.543-3.658,5.866-6.573,10.159-8.26
		c11.406-4.483,1.599,4.469,29.993-0.751c4.424-0.813,7.041,4.297,22.465-7.305c16.615-12.497,46.404-3.471,45.732,14.167
		c-0.586,15.366,19.917,6.741,29.453,34.421c5.192,15.072,12.828,22.59,16.126,19.885c6.357-5.214,13.779-9.002,20.32-13.82
		c13.72-10.106,19.128-17.999,28.328-10.656c11.004,8.783,18.131-8.676,37.434,4.107c3.905,2.586,18.191-7.558,25.845,10.256
		c0.341,0.793,0.736,1.948,1.372,2.17c6.89,2.399,9.408,9.801,15.38,13.31c5.991,3.519,6.442-8.724,17.908-4.032
		c1.092,0.447,2.724-0.33,4.083-0.645c9.696-2.245,18.911,8.823,15.338,17.461c-1.433,3.464-1.464,15.666,3.957,14.8
		c22.734-3.634,16.969,18.783,24.747,12.979c5.768-4.305,8.021,2.713,16.973-8.584c1.035-1.307,2.78-2.307,4.401-2.85
		c12.09-4.052,24.033-32.506,35.905-8.455c12.631,25.589,2.344,8.515,26.744,21.126c7.422,3.836,11.4,11.678,19.544,14.359
		c6.203,2.042,9.697,6.958,11.457,13.515c1.517,5.652,20.629,10.897,33.444,4.499c4.287-2.14,11.678,1.169,13.643,5.538
		c2.969,6.603,9.372,8.773,14.579,12.527c1.775,1.279,2.527-0.365,3.479-1.24c10.809-9.933,10.699,3.501,25.613,0.38
		c10.501-2.197,14.298,5.796,19.032-1.582c3.302-5.146,4.592-1.54,14.349-5.027c12.356-4.415,12.013,4.457,15.9,0.227
		c6.146-6.689,16.042-4.928,18.924-6.657c3.782-2.269,7.492-3.879,11.545-0.534c0.457,0.378,1.472,0.469,2.055,0.245
		c5.349-2.058,10.484-2.831,14.985,1.87c0.185,0.193,0.809,0.27,0.99,0.118c5.013-4.217,10.386-0.485,15.567-0.769
		c11.673-0.639,7.88,19.512,17.492,11.977c9.739-7.634,19.955-3.71,30.02-0.939c1.991,0.548,3.631,2.173,5.684,0.217
		c0.44-0.419,1.479-0.741,1.954-0.512c6.143,2.955,13.599-0.265,19.441,4.286c8.56,6.668,9.282-9.682,20.038-1.804
		c8.194,6.003,16.202-2.277,21.172,6.603c4.59,8.2,4.228-7.555,16.553,1.384c3.205,2.325,5.505,2.021,8.261-0.234
		c3.632-2.973,9.076-1.618,12.522-5.12c1.19,3.627,4.499,1.194,6.566,2.304c0.234,0.126,0.585,0.536,0.574,0.548
		c-3.376,3.913,1.592,2.326,2.395,3.271c1.785,2.103,5.01,2.219,7.119,4.32c3.929,3.914,10.255-3.728,15.033-1.472
		c-0.361,0.719-7.568,3.737-8.657,4.227c0.396,0.259,5.508,3.745,5.945,3.592c8.982-3.14,16.54,9.331,30.871-2.719
		c0.132-0.111,9.755-6.541,9.915-6.607c-0.192,1.001-0.26,2.841-4.094,4.983c-10.499,5.864-7.994,13.821-17.331,10.514
		c-12.938-4.582-28.978-1.99-34.515-8.981c-1.725-2.179-3.759-1.96-6.046-0.474c-9.144,5.939-30.737-0.28-36.215-3.263
		c-3.278-1.785-6.52,6.371-12.706-2.627c-3.708-5.392-13.217,1.026-20.05-5.117c-1.618-1.455-3.435-1.5-4.693,0.072
		c-8.796,10.99-19.686-3.312-20.493,2.656c0,0-13.688-5.342-22.277-1.325c-8.077,3.778-0.493,4.616,0.748,7.488
		c5.565,12.875,23.482,13.243,31.883,17.803c4.797,2.604,9.257-4.698,20.694-5.833c5.2-0.516,29.412-5.856,30.68-2.748
		c1.016,2.49-15.472,0.298-21.698,4.047c-3.122,1.88-6.631,0.307-10.127,1.424c-10.75,3.435-16.453,8.224-21.331,5.337
		c-2.911-1.724-19.739-6.563-20.152-5.561c-0.151,0.367,0.179,1.336,0.47,1.423c4.896,1.473,6.676,6.601,10.812,9.086
		c8.129,4.885,7.758-2.993,11.659-1.397c11.728,4.798,12.415,0.434,17.846,2.134c-0.751,1.204-21.78-1.548,15.629,15.777
		c2.566,1.188,6.333-3.725,9.856,0.075c10.693,11.535,9.801,16.107,7.659,12.714c-12.164-19.268-13.843,0.817-17.409,6.512
		c-7.601,12.138-20.837-6.718-29.228,3.289c-4.533,5.405-12.877-0.706-13.376-8.749c-0.728-11.714,0.942-14.981-7.396-23.134
		c-2.584-2.527,0.585-9.807-12.129-2.135c-4.984,3.007-0.198,4.035,4.178,7.284c-1.514,0.171-3.284-0.476-3.982-1.018
		c-7.674-5.971-13.562,4.712-14.562,4.795c-8.758,0.724-24.933,12.121-31.041,0.857c-6.208-11.449-12.706-1.817-15.482-6.782
		c-2.294-4.103-5.777-4.031-9.6-3.485c-4.787,0.683-8.069-2.931-11.879-4.694c-6.359-2.942,1.781-9.809-3.104-15.609
		c-7.269-8.629-3.318,4.855-28.339,0.947c-0.663-0.104-1.667-0.269-1.875-0.708c-4.563-9.618-22.337-7.449-29.439-15.262
		c-2.878-3.166-11.154,2.95-19.963-1.704c-5.615-2.966-8.488,4.562-1.192,4.611c10.827,0.072,10.812,6.748,27.674,17.004
		c20.826,12.666,2.154,34.641,13.943,32.347c5.26-1.024,5.775,5.845,13.41,10.994c16.411,11.066,13.715,31.935,20.65,24.949
		c6.138-6.183,13.964-4.37,21.256-2.365c9.345,2.568,2.771-3.364,12.11-6.08c8.839-2.57,5.218-9.425,29.921-8.508
		c2.244,0.083,23.364-15.149,44.062,9.808c6.55,7.897,18.504,0.729,23.916,10.394c1.964,3.507,8.435,3.479,9.286,2.84
		c4.489-3.37,11.682-0.248,14.762-7.115c4.627-10.317,23.495-1.323,24.106,11.026c0.415,8.387,9.061-1.718,19.181,12.431
		c13.995,19.57-3.152,17.129,28.539,28.099c7.035,2.435,11.254-0.067,16.998-1.429c16.148-3.828-7.261-15.301,15.014-29.319
		c19.135-12.043,42.049-6.846,43.899,16.175c0.621,7.725,11.104,14.372,11.937,15.479c3.09,4.112,2.104-2.061,11.176-2.365
		c5.164-0.173,7.985-3.469,9.042-8.127c3.048-13.436,28.296-3.205,41.328-0.321c7.067,1.564,15.639,1.058,21.056,7.809
		c0.625,0.78,1.359,1.241,2.711,0.776c20.7-7.122,12.974,23.721,33.612,12.841c9.55-5.034,19.7,12.797,30.677,1.89
		c15.892-15.792,20.767,5.966,30.799-0.088c4.233-2.555,10.031-1.33,13.876-5.588c8.485-9.394-5.724-17.172,3.339-28.761
		c6.615-8.458,19.769-3.946,25.245,6.128c1.345,2.474,8.32,2.836,10.123,0.351c1.604-2.211,3.237-3.524,6.071-3.379
		c4.645,0.239,4.224-12.584,15.096-8.682c8.203,2.944,11.341-5.078,14.283-4.864c4.915,0.358,11.187-0.516,14.395,2.15
		c6.173,5.13,15.415,6.118,19.07,14.907c1.773,4.264,14.732,4.947,19.917,1.183c5.387-3.911,10.063-4.06,15.407-0.367
		c5.576,3.853,22.688,3.204,27.022-0.563c5.748-4.997,11.416,5.547,17.298,2.403c7.905-4.225,16.055-3.487,24.774-2.693
		c13.365,1.217,13.331,8.572,18.169,10.622c10.374,4.396,6.78-8.911,16.886-4.863c9.125,3.654,16.399-10.913,31.058-0.503
		c5.753,4.086,7.81-7.098,13.202-0.92c1.94,2.223,9.721,4.391,11.859,4.381c1.275-0.006,1.944-1.934,3.454-1.081
		c0.733,0.415-3.268,4.537-5.217,3.155c-3.269-2.319-7.621-1.248-10.622-4.144c-2.071-1.998-5.524-1.338-5.468,1.047
		c0.209,8.756-13.774-8.718-27.312,0.092c-8.572,5.578-12.835-1.735-16.992,3.962c-4.007,5.493-13.397,5.575-17.251,0.08
		c-2.584-3.683-4.35-7.107-10.323-5.734c-3.702,0.851-10.75-6.272-25.884,2.208c-2.961,1.659-6.45,2.268-9.579-1.286
		c-5.954-6.765-8.892,6.132-18.369,1.978c-0.904-0.396-2.2-0.472-3.128-0.151c-12.087,4.183-17.972-7.358-24.482-2.771
		c-8.124,5.724-22.553,6.795-28.866-0.341c-4.399-4.972-9.345-8.025-14.346-11.649c-6.153-4.459-4.794,0.789-8.874-2.197
		c-5.941-4.348-8.308,7.013-20.654,3.695c-6.314-1.697-2.761,7.578-12.466,8.901c-1.186,0.162-1.872,0.83-2.601,1.62
		c-4.649,5.033-11.066,3.895-16.806,4.252c-10.939,0.681-3.648-15.612-15.606-12.8c-2.849,0.67-3.474,5.165-1.213,6.301
		c6.179,3.103,2.071,29.005-17.732,31.411c-1.377,0.167-3.007,0.412-3.998,1.244c-12.203,10.258-17.339-10.912-27.465-1.268
		c-9.975,9.501-25.018,6.238-29.616,1.346c-0.499-0.53-2.333-0.579-2.959-0.093c-4.922,3.828-10.376,1.99-15.716,1.829
		c-7.437-0.225-10.297-6.029-13.616-11.087c-6.051-9.224-8.156,2.887-17.478-6.544c-3.385-3.424-9.277-2.464-9.277-2.464
		c-5.079-4.436-12.416-1.742-17.602-5.622c-1.826-1.367-3.74-0.709-5.629-0.699c-8.639,0.046-9.159-7.827-13.513-0.86
		c-3.288,5.261-6.602,10.578-13.222,12.29c-1.276,0.33-2.249,0.965-0.243,1.543c6.98,2.014,4.405,6.88,19.635,26.278
		c6.589,8.393,7.503-2.895,14.845,2.757c13.13,10.108,24.449,3.238,35.637-9.357c13.51-15.208,18.938,8.853,32.261,3.746
		c0.991-0.38,2.017,0.621,1.908,1.29c-0.215,1.325-1.346-0.024-2.081,0.309c-4.926,2.231-5.733-0.523-8.712,0.284
		c-1.576,0.427-0.305,3.001-2.309,3.18c-0.352-10.391-14.389-16.425-20.913-6.354c-2.125,3.279-5.166,5.717-7.961,8.376
		c-1.401,0.673-2.801,1.347-4.2,2.02c0.11,0.212,0.219,0.423,0.329,0.635c1.263-0.913,2.527-1.826,3.791-2.74
		c19.391-0.111,11.877,7.416,17.141,8.389c12.005,2.22,12.517-0.807,15.744,4.687c7.103,12.093,9.265-0.784,17.275-0.585
		c11.425,0.283,17.555-9.885,23.383-1.972c4.477,6.08,14.218,7.064,19.588,1.816c12.182-11.907,15.261,8.563,20.752-0.617
		c3.259-5.449,6.176-2.406,9.418-0.312c7.826,5.056,14.756,7.993,14.756,7.993c-1.73,2.686-12.118-3.774-14.718-5.572
		c-10.402-7.193-6.411,4.974-15.102,1.667c-14.999-5.707-25.888,12.184-37.199-3.065c-1.642-2.214-3.577-1.953-5.64-1.034
		c-18.922,8.424-14.618,1.513-20.315,7.598c-10.332,11.038-11.476-6.91-23.174-5.32c-16.173,2.197-5.172-13.438-21.432-8.493
		c-4.749,1.444-12.284,10.808-27.076-0.199c-2.842-2.115-4.98-3.609-8.864-1.102c-4.501,2.905-10.007-0.357-11.712-5.808
		c0,0-6.695-7.89-10.693-16.234c-4.944-10.32-14.893-9.964-18.034-5.296c-4.376,6.504-12.215,5.028-13.872-2.678
		c-1.742-8.102-8.08-2.69-12.365-8.937c-1.388-2.023-3.418-0.732-5.199,0.237c-11.971,6.515-12.31-3.531-17.731-5.565
		c-12.926-4.851-0.318,3.753-8.829,19.729c-8.754,16.43-32.424-1.077-35.444-7.374c-0.807-1.684-2.01-0.323-3.096,0.182
		c-8.501,3.956-11.959,2.733-16.565-5.779c-3.508-6.484-8.953-0.234-12.053-16.402c-0.225-1.176-3.555-14.454-11.358-13.704
		c-19.498,1.875-12.233-15.152-16.515-17.137c0,0-14.953,13.004-30.066,8.793c-3.24-0.903-8.602,1.255-10.218-1.373
		c-4.283-6.963-11.856-5.067-17.844-7.401c-15.843-6.175-9.275-12.7-16.741-13.667c-4.466-0.579-7.677-5.27-13.108-3.366
		c-3.335,1.169-5.435,4.054-9.191,4.752c-10.901,2.026-12.184-4.266-29.09,8.855c-6.585,5.112-12.824,9.405-21.548,5.106
		c-4.925-2.427-11.105,1.402-7.598,7.954c3.833,7.161-0.618,8.824,2.223,11.582c9.057,8.79,1.513,23.785,13.728,24.104
		c17.159,0.447,10.997,13.504,22.991,12.99c10.237-0.439,26.311,3.114,28.621,13.166c1.405,6.114,6.119-2.324,20.713,0.689
		c10.852,2.241,10.68,10.797,20.358,10.16c5.024-0.331,11.119,6.653,14.338,5.222c7.881-3.506,16.496-2.385,24.754-3.445
		c3.744-0.481,7.528,2.292,10.252,4.989c11.899,11.786,35.064-4.898,44.359,1.747c7.233,5.17,29.114,12.065,33.452,21.835
		c2.831,6.376,15.226,0.444,20.907,3.281c3.402,1.698,6.799,0.226,9.889-1.298c1.272-0.628,2.448-1.966,3.76-0.985
		c6.178,4.617,15.88,5.862,17.797,14.51c1.989,8.972,9.158,13.5,15.049,17.607c15.286,10.657,14.92,4.245,19.851,4.843
		c-1.269,2.08-5.192,5.048-7.624,3.391c-6.51-4.434-16.184-3.323-20.395-11.684c-0.348-0.692-1.279-1.441-2.015-1.529
		c-8.989-1.076-2.281-8.806-15.457-18.217c-9.705-6.932-17.956,1.601-21.678-1.103c-1.336-0.97-3.159-1.877-4.466-1.099
		c-4.694,2.792-9.22-0.179-13.81-0.061c-8.544,0.22-3.477-6.241-16.428-12.176c-26.323-12.063-21.942-13.357-26.185-11.653
		c-37.625,15.108-42.701-14.312-70.598-0.788c-8.147,3.95-9.194-5.108-18.585-4.149c-12.776,1.305-9.459-15.627-31.142-9.612
		c-20.487,5.683-6.248-10.666-29.595-13.439c-3.545-0.421-19.936,0.093-22.703-8.416c-1.147-3.527-3.637-4.757-7.331-4.673
		c-6.185,0.141-15.342-6.154-17.51-11.817c-0.454-1.187,0.427-11.986-2.296-14.078c-9.182-7.052-0.943-18.1-7.883-14.91
		c-6.195,2.848-8.623,4.652-12.862,2.581c-22.536-11.014-11.461,2.817-45.185-18.063c-0.414-0.256-11.422-4.306-11.579-3.942
		c-2.284,5.269-8.754,6.716-11.032,11.796c-2.526,5.633-5.911,10.006-12.247,11.337c-3.427,0.72-1.293,2.958-0.293,3.307
		c8.257,2.885,14.629,9.444,23.419,11.488c12.632,2.936,10.295,10.834,15.789,15.75c10.526,9.421,2.387,16.237,15.443,13.214
		c32.907-7.62,34.874,31.658,45.509,40.161c8.64,6.909,15.881,14.699,17.985,26.134c0.524,2.848,7.334,11.818,9.089,11.489
		c8.627-1.618,14.297,3.242,19.61,8.871c4.361,4.62,31.506,6.641,36.998,23.498c0.495,1.521,1.315,1.44,2.368,0.951
		c4.285-1.989,9.025-0.836,13.5-2.047c8.616-2.333,10.779,4.637,21.732,1.509c1.948-0.556,4.386-1.249,5.646-0.075
		c8.914,8.303,11.288-7.019,41.25-9.03c13.052-0.876,9.97,8.848,19.025-3.34c6.264-8.431,34.948-31.201,72.33-21.649
		c8.853,2.262,12.279,21.802,35.959,17.155c3.766-0.739,16.959,7.256,18.88,9.257c2.331,2.428,5.013,1.235,7.319-0.043
		c10.029-5.559,9.25,6.924,27.915,8.343c9.028,0.686,14.397,15.411,15.903,21.797c3.181,13.489,14.133,5.649,24.794,14.166
		c7.986,6.379,10.514-0.156,26.08,4.618c6.015,1.845,8.874,8.408,15.388,9.008c1.398,0.129,2.384,1.534,2.991,2.839
		c13.243,28.482,54.079,9.275,52.478,42.641c-0.672,14.009,22.522-20.36,39.813-13.641c10.331,4.015,14.536-8.321,25.565-4.37
		c6.537,2.342,13.465,0.171,20.232,1.072c18.676,2.487,18.43-2.288,27.488-2.351c11.153-0.078,16.363,0.804,21.846-6.968
		c0.77-1.091,2.221-2.489,3.301-2.442c5.796,0.255,10.157-3.943,15.434-4.725c12.592-1.865,3.502-9.714,25.146-17.739
		c13.831-5.128,16.686,4.539,25.055,0.986c6.669-2.832,14.83,11.948,20.091-2.999c4.301-12.219,16.506-5.416,22.534-9.777
		c19.159-13.861,14.749,2.573,26.806-2.219c3.884-1.544,8.193,0.204,11.494,2.103c8.465,4.869,14.045-1.658,21.015-1.089
		c6.133,0.501,11.693-2.194,17.65-2.306c3.525-0.066,3.526-3.637,4.664-5.588c6.711-11.504,12.271-3.888,16.272-9.641
		c5.569-8.01,7.065,4.536,35.591,0.741c6.657-0.885,14.094-2.7,20.226,2.832c2.498,2.253,11.63-1.111,16.79,8.145
		c0.74,1.328,1.996,2.881,3.329,3.279c10.178,3.041,12.876,16.669,20.523,17.267c1.751,0.137,11.137,8.712,19.166,7.539
		c1.246-0.182,3.065,0.343,3.922,1.223c5.84,6.006,12.814,5.098,19.87,3.475c4.638-1.067,15.809,4.331,20.05,1.646
		c6.616-4.19,13.957,1.243,18.423-2.937c3.251-3.043,6.836-4.906,11.39-4.652c7.001,0.39,13.807-2.862,20.926-1.011
		c3.218,0.837,6.535-1.084,9.339-1.105c11.21-0.083,17.291-9.809,26.768-12.795c4.964-1.564,18.149-0.489,19.014,0.238
		c-0.313,0.352-0.572,0.913-0.951,1.013c-5.001,1.319-12.964-4.201-30.729,10.548c-12.849,10.666-39.85,3.517-47.436,9.362
		c-13.961,10.755-44.978,6.616-44.978,6.616c-5.533,3.839-17.906,0.66-24.408-2.257c-11-4.936-17.354-2.067-20.073-6.675
		c-0.513-0.87-1.399-2.052-2.21-2.132c-6.889-0.675-9.897-6.042-13.749-10.636c-8.923-10.642-8.228-2.62-12.372-8.999
		c-1.344-2.068-2.606-5.154-4.514-5.711c-16.159-4.712-16.843-7.51-38.802-2.956c-7.21,1.495-30.242-8.1-35.103,8.702
		c-1.748,6.043-7.489,2.603-18.987,7.319c-5.881,2.412-6.098-2.085-12.904,1.023c-8.02,3.663-15.687,3.683-23.811-0.206
		c-3.858-1.846-8.72,0.161-13.115-0.945c-5.351-1.346-10.974-3.334-15.137,2.67c-2.454,3.542-11.946-0.302-14.083,3.419
		c-4.276,7.442-10.912,16.308-18.818,13.702c-9.47-3.122-19.619-1.977-29.234-5.097c-7.83-2.541-12.594,4.204-16.817,9.376
		c-8.826,10.811-25.719,9.783-32.435,18.968c-6.847,9.365-16.896,1.71-31.271,7.32c-13.192,5.149-22.22-2.923-33.483,1.859
		c-0.746,0.317-1.956,0.433-2.566,0.042c-10.98-7.03-17.677,6.122-32.518,3.385c-12.915-2.383-8.546,4.045-17.232,7.599
		c-7.272,2.976-19.3,10.899-12.783,11.27c3.255,0.185,3.766,1.951,4.537,4.687c2.292,8.132,14.203,11.83,21.625,7.031
		c16.452-10.639,24.208,6.135,25.208,6.019c6.123-0.707,12.165,3.294,18.185,0.721c6.239-2.666,10.492-2.489,14.467,3.058
		c7.229,10.087,20.104,6.041,15.407,24.554c-2.823,11.126,6.08-1.908,14.117,7.362c3.79,4.371,8.793,4.591,13.416,1.414
		c4.359-2.996,10.531-0.07,11.227,5.72c1.593,13.255,20.392,14.909,24.199,17.546c1.801,1.247,3.649,0.464,5.542-0.251
		c11.286-4.265,7.917-1.174,23.202,7.292c6.447,3.57,3.724-36.859,20.875-23.611c10.48,8.095,18.026,17.283,27.704,8.184
		c3.09-2.904,0.857,2.558-1.86,3.846c-1.134,0.538-3.065,0.45-3.126,1.849c-0.057,1.307,4.272,4.847,6.63,1.194
		c2.151-3.332,12.967-10.556,20.563-5.63c-3.004,0.96-11.249-2.977-20.405,8.02c-3.616,4.344-25.606-9.952-29.849-14.884
		c-8.304-9.655-13.816,8.618-10.536,8.988c9.324,1.05,8.469,10.658,13.479,13.411c11.751,6.455,14.152,14.109,16.64,23.466
		c0.702,2.636,3.261,4.777,2.123,7.904c-6.717-14.023-2.518-13.301-13.638-25.726c-0.469-0.524-0.736-1.589-1.227-1.677
		c-10.572-1.904-9.962-16.026-18.37-15.435c-2.487,0.175-1.519,3.021-2.205,4.634c-2.693,6.329-2.876,8.031,2.336,9.911
		c7.116,2.567,9.92,10.465,13.218,16.587c3.439,6.383,9.776,10.565,12.005,17.669c0.463,1.477,2.206,3.469,3.344-0.503
		c1-3.492,4.933-2.797,7.283-1.833c5.377,2.205,11.384,0.35,16.69,3.35c6.839,3.868,10.964-11.117,24.053-0.572
		c3.416,2.752,6.696,5.838,11.335,6.41c3.739,0.462,3.663,6.242,8.242,3.289c13.255-8.548,25.501,12.071,29.353,3.421
		c0.911-2.046,12.087-12.519,16.514-2.443c6.063,13.807,9.466-3.693,18.848,1.927c-1.202,1.439-2.83,0.329-4.242,0.68
		c-2.003,0.497-3.351,1.777-4.901,2.974c-8.608,6.646-10.919-6.233-14.566-7.718c-2.824-1.15-5.202,1.335-5.624,2.58
		c-0.884,2.615,1.849,1.248,3.073,1.389c1.237,0.143,2.499,1.034,2.277,1.782c-0.524,1.77-1.367-0.232-2.188-0.226
		c-3.255,0.023-6.61-1.52-9.185,2.299c-4.648,6.897-16.602-11.359-28.233-3.916c-2.638,1.688-6.198,2.161-8.371-1.412
		c-1.6-2.631-4.338-1.991-6.606-2.411c-0.782-0.145-0.526,1.774-0.711,2.766c-1.177,6.295,10.572,5.479,11.446,6.716
		c-1.217,0.128-2.448,0.179-3.648,0.4c-2.667,0.49-6.338-2.869-7.219-0.985c-1.386,2.968,3.442,3.643,4.845,5.977
		c1.378,2.293,2.092,5.785,6.02,4.308c3.183-1.197,4.579-3.732,4.207-7.147c-0.711-6.521,13.582-3.645,15.52,0.397
		c-2.796-0.074-4.366-2.642-7.948-0.454c-2.034-4.242-6.047,0.557,0.05-0.064c0.595,1.47,2.183,0.813,3.156,1.472
		c-3.123,2.647-7.431-3.567-8.738,1.584c-0.635,2.505-3.66,4.928,0.625,6.948c0.466,0.22,1.424,0.492,1.002,1.335
		c-0.36,0.723-3.577-1.639-4.192-1.531c-9.073,1.599-19.141-10.84-17.519-18.798c1.733-8.506-10.816-13.021-17.033-9.126
		c-4.614,2.89-8.974,2.924-14.008,0.974c-4.218-1.633-9.115-0.481-13.484-2.127c-0.766-0.288-1.782,0.147-1.729,0.713
		c0.376,3.956-3.048,8.339,1.193,11.856c4.626,3.836,2.495,28.658,25.178,36.783c4.822,1.727,6.112,7.104,9.073,10.715
		c5.899,7.195,9.551-7.599,17.8,3.567c6.186,8.372,5.654,14.123,8.504,12.68c2.639-1.336,5.027-0.209,7.026,0.901
		c11.745,6.524,23.907,4.372,35.393,0.51c7.206-2.423,23.679-0.46,23.304,8.853c-0.156,3.876,1.698,5.982,5.79,7.005
		c21.53,5.379,5.491,13.344,17.262,15.097c19.475,2.901,5.543,11.753,19.924,18.709c3.099,1.499,4.513,3.843,3.985,6.711
		c-1.725,9.376,5.123,16.425,6.371,24.954c0.146,1,10.936,9.81,0.565,16.068c-1.703,1.027-0.744-1.805,0.167-2.858
		c7.229-8.37-1.552-7.7-3.317-14.327c-3.16-11.872-8.248-11.678-6.538-19.373c2.601-11.703-12.778-9.658-11.421-18.361
		c0.932-5.974-6.983-8.545-11.986-8.057c-11.906,1.162,1.961-10.354-16.224-14.769c-4.322-1.049-7.943-2.042-9.206-6.808
		c-0.449-1.694-2.489-2.04-3.208-1.703c-5.911,2.77-23.393-1.372-19.1,6.016c5.69,9.791-1.175,16.039,3.772,18.477
		c9.563,4.713,10.113-7.685,19.652-2.53c1.777,0.96,1.956,2.543-0.274,1.214c-2.977-1.774-5.549-1.599-8.083,1.018
		c-2.286,2.363-5.812,2.446-8.562,4.027l-0.075,0.086c-5.333-1.201-7.437-4.852-6.364-9.834c1.773-8.236-4.161-13.883-6.43-20.73
		c-0.816-2.463-2.743-0.253-3.838,0.419c-14.636,8.98-18.979-7.562-28.986-4.96c-3.543,0.922-7.464,0.101-7.825-5.26
		c-0.242-3.596-2.762-6.376-4.453-9.401c-4.021-7.197-8.603,9.383-18.726-4.066c-12.045-16.001-19.421-7.529-25.71-24.078
		c-2.66-7-7.699-13.057-7.774-21.155c-0.059-6.43-13.646-1.426-28.54-12.647c-6.494-4.894-6.822,3.811-14.273-6.31
		c-7.133-9.686-11.367,7.934-21.959-5.508c-8.127-10.314-2.686-12.149-8.698-18.578c-11.479-12.274-3.158-16.796-17.074-19.61
		c-6.103-1.234-7.321,14.447-20.834,7.207c-17.036-9.127-6.326-27.819-25.817-26.224c-7.112,0.581-5.05-10.619-10.998-8.064
		c-6.148,2.641-7.682-2.892-23.612-2.661c-9.243,0.134-15.145-7.303-11.134-15.886c2.138-4.574,2.885-7.999-2.542-10.878
		c-2.376-1.26-6.213-9.549-12.166-5.995c-29.174,17.416-31.186-13.803-45.908-11.397c-9.69,1.584-27.653-22.823-38.221-9.761
		c-5.338,6.597-6.139-1.369-12.057,0.357c-8.822,2.573-7.742-4.084-16.676,3.88c-1.949,1.737-0.005,4.574,0.99,6.634
		c4.935,10.22,0.804,16.011,6.739,16.264c5.671,0.242,10.732,2.919,16.691,2.698c14.215-0.528,15.932,3.275,22.585,10.605
		c-3.421-0.344-4.679-3.514-6.973-5.329c-10.302-8.152-11.214,9.215-3.027,5.688c7.923-3.414,10.054,7.494,13.361,2.172
		c1.583,1.045,4.898-0.073,4.426,3.542c-4.292-1.57-9.45-0.443-13.014-4.443c-2.005-2.25-6.568,2.448-1,3.154
		c2.991,0.379,5.871,0.924,7.496,3.905c0.466,3.123,2.853,3.392,5.737,2.397c3.095-1.068,1.166-3.294,0.671-5.112
		c3.394-0.088,1.461,5.81,5.631,4.957c2.811-0.574,4.142-3.701,6.572-4.176c13.405-2.62,14.514,1.573,15.091,6.629
		c0.482,4.224,4.301,5.84,3.442,10.732c-0.793-1-5.238-8.989-5.679-12.213c-1.364-9.956-21.387,2.738-23.397,3.253
		c-1.305-3.286-8.973,0.519-1.311,0.084c-4.885,7.758,9.23,4.607,14.193,6.233c1.001,0.328,2.871,2.042-0.286,1.481
		c-10.283-1.829-13.789,2.245-19.796-6.743c-18.216-27.257-19.103,6.628-39.584-22.698c-6.209-8.89-6.127,0.575-9.279-14.354
		c-9.969-47.224-26.275-29.975-28.967-36.467c-1.957-4.72-6.865-6.979-9.43-11.296c-3.639-6.126-9.484,3.906-22.804,4.824
		c-2.834,0.195,0.139,5.981,1.853,5.312c5.548-2.165,1.311,1.444,31.039,10.167c7.777,2.282,10.951,8.448,9.185,16.287
		c-2.481,11.02,16.826,28.796,19.365,30.316c6.474,3.875-4.143,11.03,9.092,18.226c9.239,5.023,14.334,16.767,11.12,26.435
		c-0.919,2.764-0.345,4.237,1.706,5.836c12.993,10.128,0.962,13.702,17.471,11.705c3.26-0.395,7.748-9.896,13.596-2.62
		c6.452,8.029,20.302,6.844,20.165,18.766c-0.021,1.829,2.606,2.51,1.723,4.565c-5.669-4.469-2.469-12.934-8.173-12.232
		c-3.12,0.384-14.162-8.891-15.163-9.85c-6.382-6.12-5.793,5.482-18.773,4.5c-7.594-0.575,2.328,11.941,5.367,12.089
		c9.616,0.469,20.521,3.757,18.902,13.209c-2.375,13.862,7.331,7.308,10.897,12.577c1.054,1.557,3.113,2.018,4.218,1.326
		c5.512-3.452,8.831,1.274,11.689,3.817c19.399,17.26,6.914,11.443,22.195,10.284c1.226-0.093,1.714-1.889,3.135-1.116
		c-0.752,1.212-1.646,2.565-3.058,2.685c-6.408,0.543-8.852,5.045-13.652-0.232c-12.127-13.336-15.37-15.684-20.06-13.234
		c-1.189,0.621-3.603,0.765-4.52-0.523c-3.005-4.226-10.342-2.159-12.063-5.337c-3.367-6.219-4.607,3.688,2.157,3.809
		c3.322,0.059,7.515,3.05,8.436,5.62c-2.166,0.494-2.683-1.681-3.935-2.581c-1-0.719-10.821-4.07-8.462,0.306
		c1.029,1.91,1.34,3.777,0.538,5.804c-0.198,0.17-0.397,0.339-0.597,0.508c-3.232,5.084-2.07,9.707-10.466,10.885
		c2.629-2.776,7.766-2.737,8.304-12.411c1.724-31.044-0.028-30.242-9.005-32.245c-12.27-2.738-14.813-4.456-16.884-16.819
		c-2.271-13.562-14.065-9.697-9.268-20.533c2.508-5.665-0.288-17.757-13.832-24.248c-10.883-5.216,0.571-15.501-10.189-18.562
		c-3.753-1.068-2.443-5.62-5.362-7.412c-6.013-3.69-8.366-10.035-11.063-16.101c-2.969-6.679,4.423-16.12-6.36-18.783
		c-8.877-2.193-17.47-5.03-25.614-9.221c-5.963-3.069,0.035,7.588-19.042-13.11c-8.42-9.135-9.423,3.414-20.419-4.496
		c-10.605-7.629-6.098-14.515-22.503-14.9c-16.419-0.386-8.565-14.562-21.615-12c-13.306,2.613-18.856-3.653-18.856-3.653
		c-6.57,5.865-15.141-1.713-22.642,4.222c-7.086,5.607-18.572,1.133-25.56-5.362c-16.093-14.955-9.545-1.16-33.308-10.402
		c-8.658-3.367,2.775,1.26-18.007,1.779c-7.293,0.182,6.045,9.06,10.974,8.845c4.673-0.204,7.951,4.375,11.84,6.816
		c4.361,2.737,9.585,2.809,14.035,5.163c2.074,1.097,10.798-11.462,19.498,0.679c5.978,8.341,22.91-5.101,30.515,8.78
		c1.659,3.029,4.694,2.136,14.564,1.415l-0.056-0.067c-0.603,1.458-1.812,2.258-3.269,2.155c-6.323-0.45-12.165,3.034-18.664,1.924
		c-3.246-0.554-6.952,4.819-6.753,8.705l0.083-0.069c-2.745-3.328-6.917-3.635-10.608-4.914c-8.508-2.946,6.566,12.319,7.674,27.444
		c0.158,2.16,1.741,2.476,3.223,2.781c6.338,1.305-1.42-1.379,13.182,10.273c16.342,13.039,44.16-2.434,53.856,14.494
		c-17.504-10.342-31.445-3.096-49.5-8.453c-2.64-0.783-7.694-9.828-12.639-3.33c-7.848,10.314,13.445,15.875,20.995,30.219
		c2.78,5.281,9.566,7.875,13.919,12.607c-1.081,0.903-12.957-8.866-14.13-7.342c-0.401,0.52-0.366,1.915,0.058,2.444
		c8.384,10.451-2.81,15.347,15.107,19.226c7.062,1.529,10.978,7.565,17.102,10.208c1.15,0.496,2.205,6.025,1.033,7.696
		c-0.367-1.628-1.181-6.318-2.256-6.741c-5.572-2.191-9.154-7.654-15.396-8.883c-2.094-0.412-13.553-4.036-13.079-7.638
		c1.111-8.446-5.731-14.297-7.054-22.154c-0.745-4.424-4.521-9.3-9.971-11.576c-4.399-1.837-6.082-6.97-10.174-9.687
		c-3.865-2.566,4.688-11.304,1.358-13.32c-3.316-2.008-4.063-8.823-10.214-5.644l0.032,0.072c1.873-2.637,0.393-3.538-2.03-4.204
		c-9.622-2.644-14.63-10.152-18.784-10.931c-2.84-0.533-5.087-2.165-7.12-4.129c0.17,3.577,2.288,6.557,3.048,9.961
		c1.877,8.406,10.304-4.951,14.544,6.879c-0.214,0.175-0.428,0.349-0.642,0.524c-2.244-2.723-4.031-5.731-8.648-3.309
		c-3.407,1.787-3.113,3.75-1.077,5.623c4.215,3.877,6.136,9.334,10.073,13.486c2.795,2.947,1.859,7.746,0.397,11.579
		c-3.83,10.044,7.131,6.255,13.583,7.887c15.908,4.024,7.77,16.617,10.625,19.679c6.037,6.474,2.41,17.013,13.147,18.46
		c16.14,2.175,30.277,24.458,47.192,46.476c3.477,4.526,10.005,5.821,11.674,12.261c0.668,2.58,4.469,1.958,6.532,0.69
		c6.042-3.714,10.015,2.478,12.475,2.641c5.903,0.393,8.023,3.762,7.588,9.211c-0.123,1.541,1.682,4.058,0.662,4.035
		c-2.978-0.067-1.248-9.324-3.573-9.054c-1.618,0.187,0.156,1.775-0.203,2.885c-2.526,7.809-6.096,9.147-12.468,15.697
		c-5.753,5.913,3.99,7.395,1.268,15.324c-2.111,6.148-0.724,8.609,5.625,9.914c3.115,0.641,8.429-0.684,8.844-0.501
		c-13.769,6.281-18.225-2.667-16.386-9.942c0.476-1.882,0.674-3.927-0.748-5.577c-7.432-8.628,4.023-11.617,2.999-17.411
		c2.571,2.989,3.494,0.707,4.473-1.396c2.956-2.008,7.921-11.247-0.734-8.334c-2.006,0.675,0.198,2.005-0.193,3.013
		c-3.17-3.132-8.706-1.251-11.427-5.415c-0.545-0.835-1.509-1.885-2.583-1.139c-3.917,2.722,9.582,12.466,10.582,13.378
		c-4.327-1.277-8.279-3.045-10.496-7.373c-5.869-11.457-9.298-5.538-12.058-14.721c-3.336-11.094-13.792-6.647-15.81-18.861
		c-0.879-5.317-11.554-14.457-16.848-14.538c-5.331-0.081-10.315-4.967-10.243-10.305c0.041-3.036-0.512-4.493-4.173-4.073
		c-3.62,0.416-11.574-6.002-12.818-9.641c-5.658-16.557-7.933-14.144-6.865-20.105c2.572-14.346-18.207-13.657-18.292-9.585
		c-0.151,7.203,9.494,6.116,10.107,7.426c-2.926,0.256-7.139,0.049-8.004-1.371c-4.163-6.836-12.095-12.164-8.548-22.255
		c3.606-10.261-5.151-8.008-5.079-10.729c0.162-6.122-6.323-8.9-7.149-14.774c-1.591-11.309-19.357,5.336-26.272-13.661
		c-2.795-7.679-7.472-5.877-7.179-12.871c0.151-3.594-4.202-4.076-5.273-6.813c-2.674-6.836-10.345,1.861-12.992-5.292
		c-1.246-3.368-9.622-7.336-10.552-6.208c-1.543,1.873,2.259,2.696,2.923,4.46c8.21,21.804-7.416,30.04,4.901,45.071
		c7.782,9.498-7.33,13.106-1.699,14.786c8.031,2.396,11.018,7.763,8.032,15.701c-3.043,8.089-0.165,7.882,0.643,16.274
		c0.067,0.692-0.414,1.823-0.114,2.05c5.022,3.793,7.441,9.953,12.392,13.674c1.342,1.009,3.195,1.263,3.664,3.242
		c1.573,6.634,12.599,32.646,18.683,35.76c3.658,1.872,6.909,3.907,9.365,7.176l0.068-0.072c-0.691,0.341-1.383,0.683-2.074,1.024
		L1713.944,1161.812z M1765.864,1010.813c6.32-5.462-16.289-9.216-20.118-6.481c-0.938,0.67-1.315,1.483-0.31,1.953
		c18.103,8.471,9.484,1.258,20.537,4.587c-9.337,1.227,1.301,3.441,2.688,1.008
		C1767.729,1011.525,1766.797,1011.169,1765.864,1010.813z M881.192,440.774c5.557,2.897,12.098,0.341,17.429,2.661
		c4.291,1.868,8.195-0.412,12.216,0.769c1.159,0.34,3.203-0.905,3.236-2.845c0.057-3.378-11.209-0.62-13.587-2.304
		c-8.423-5.969-12.884,1.555-22.833,1.945c-1.031,0.04-2.061,0.085-3.091,0.128C876.828,446.999,880.267,441.774,881.192,440.774z
		 M1696.831,1029.004c-1.984-9.263,3.458-11.761-5.201-21.031c-3.27-3.501-7.875-1.253-7.953,0.202
		c-0.297,5.473,6.299,4.275,6.441,9.581c0.137,5.154,3.767,7.926,6.795,11.177c1.945,9.317,4.945,11.082,14.511,8.637
		c3.602-0.921,5.349,3.316,7.133,1.14c1.052-1.283-0.702-3.197-1.124-4.851c-0.827-3.238-3.302-3.49-6.112-3.75
		C1706.494,1029.663,1701.488,1031.507,1696.831,1029.004z M1002.488,422.762c20.059-2.744,13.156,13.113,21.953,8.179
		c15.518-8.702,16.214-3.102,19.021-10.494c1.823-4.8-2.727-5.002-4.271-8.857c-2.963-7.393-14.536-0.97-23.374-3.473
		c-9.033-2.558-6.333,7.768-13.25,14.732c-16.7-1.736-19.971,8.732-14.698,7.962C993.745,429.954,999.779,429.372,1002.488,422.762z
		 M1195.385,577.809c-0.037-1.865,1.387-4.71-0.409-5.331c-9.107-3.151-11.609,18.194-30.106,0.834
		c-15.857-14.883-20.213-11.106-21.174-18.767c-0.947-7.544-11.192,6.682-18.419-2.496c-3.913-4.969-9.326-7.703-21.936-0.633
		c-12.88,7.221-15.497-8.523-20.928-1.023c-6.498,8.975-8.537,5.713-20.087,14.024c-10.776,7.755,11.539,9.031,16.642,27.598
		c5.257,19.123,23.346,13.05,43.133,22.96c19.035,9.534,26.135,11.426,31.388,20.787c0.562,1.002,1.922,2.416,2.711,2.297
		c7.576-1.138,12.845,4.348,19.182,6.611c12.319,4.397,9.178,12.509,14.817,22.298c2.213,3.84,2.197,0.829,16.402,3.341
		c14.364,2.54,10.064,2.34,26.575-3.834c17.113-6.4,13.047,5.875,29.36,0.741c6.658-2.095,14.303-3.167,20.084,0.465
		c6.443,4.048,14.05,4.518,20.184,8.671c1.58,1.07,2.053-0.238,2.962-1.037c4.91-4.317,13.697-4.138,16.738,1.501
		c3.202,5.939,7.677,4.158,19.395,4.027c13.724-0.154,15.109,6.82,35.422,26.222c3.641,3.478,7.101,6.493,8.893,11.277
		c8.217,21.944,30.42,11.52,34.973,34.751c0.152,0.778,0.59,2.977,1.204,2.252c2.486-2.932,7.731-2.428,8.514-7.498
		c3.847-24.886,42.959,7.744,53.526,9.726c7.088,1.33,14.636,1.646,21.041,5.7c1.986,1.257,4.182-0.593,2.016-2.658
		c-6.381-6.085-7.663-22.989-20.225-26.898c-6.979-2.172-1.052-4.692-7.92-6.237c-6.653-1.496-11.967-7.166-11.201-12.147
		c0.631-4.101-0.636-8.201,1.002-12.403c0.968-2.485,0.438-6.618-2.534-8.036c-10.755-5.13-17.882-16.525-30.846-17.769
		c-3.681-0.353-9.998-13.101-20.965-6.74c-4.084,2.369-25.83-5.495-30.821-10.766c-10.635,2.319-11.808-11.316-37.173-12.645
		c-4.508-0.236-9.29-8.538-7.088-12.427c5.101-9.01-13.72-6.495-14.731-11.717c-1.239-6.405-8.303-6.531-11.216-11.018
		c-1.06-1.633-20.025,4.318-25.527-17.591c-2.657-10.58-4.994,3.139-15.289,6.496c-8.628,2.813-11.678,14.556-21.997,14.313
		c-4.218-0.099-23.433,8.241-30.078-8.028c-2.378-5.82-10.012,1.932-16.892-5.397
		C1197.668,594.87,1195.612,586.696,1195.385,577.809z M1626.26,952.782c-7.749,0.033-13.217,3.782-19.425,5.026
		c-3.603,0.722,6.26,12.707,13.472,3.491c4.766-6.09,9.168-7.126,16.776-5.138c9.588,2.506,8.866,13.722,12.971,11.323
		c5.68-3.321,20.366-12.536,28.236-0.418c6.677,10.281,12.721-0.318,18.588,0.882c4.814,0.985,9.174,4.778,14.618,2.479
		c0.418-0.177,3.783,3.096,5.365,2.524c15.285-5.529,22.39,17.2,29.361,13.964c3.391-1.574,6.726,1.224,9.728-0.808
		c5.328-3.606,10.758-5.687,17.081-2.316c3.35,1.787,4.812-7.16,10.543-1.897c9.539,8.759,25.369-3.769,32.642,12.787
		c2.429,5.529,18.82-0.916,27.1,15.308c5.61,10.993,14.55-2.536,21.257,4.014c22.487,21.962,25.679-17.367,46.517,12.632
		c4.906,7.063,7.167-0.766,14.613,6.262c4.389,4.143,9.074,8.031,9.942,14.7c0.292,2.244,1.922,3.092,4.263,1.308
		c9.863-7.514,23.214,2.618,27.755-3.812c2.073-2.934,11.073,1.343,6.111-8.617c-3.002-6.025-7.649-6.228-8.768-11.426
		c-1.459-6.779-14.718-0.793-22.329-9.955c-0.911-1.097-2.111-0.885-3.39-0.38c-15.78,6.225-44.418,1.694-54.457-12.205
		c-17.434-24.138-24.872-23.061-24.636-32.945c0.658-27.567-60.973-27.216-81.377-46.641c-16.751-15.948-54.969,3.265-57.912,20.346
		c-2.541,14.745-22.369,0.18-34.587,1.916c-19.203,2.729-17.828,18.075-37.046,11.706
		C1641.281,954.244,1632.661,956.158,1626.26,952.782z M1530.752,683.731c-3.545,6.776,5.824,11.56,13.085,8.914
		c5.49-2.001,0.48-2.665,23.142,9.486c7.461,4,7.228,4.718,10.574-3.568c1.212-3.002,4.533-4.066,5.808-3.132
		c3.716,2.722,7.727,0.328,11.574,1.745c3.536,1.303,8.029,0.857,11.518-2.188c4.287-3.742,16.495-3.345,6.606-8.217
		c-1.485-0.732-1.724-2.1-2.508-3.215c-8.209-11.674-12.584,0.939-16.565-8.214c-0.932-2.143-2.151-2.949-4.44-2.692
		c-12.776,1.433-24.688-2.73-36.084-7.249c-7.159-2.838-15.037-2.276-21.746-6.142c-0.543-0.313-1.644,0.528-2.469,0.486
		c-10.977-0.558-23.466,6.948-26.875-1.22c-3.056-7.323-7.294-1.087-9.639-3.113c-6.886-5.946-13.419,0.106-20.086,0.506
		c-1.517,0.091-2.195,1.653-2.724,2.962c-0.726,1.796,11.326,6.545,13.585,6.567c5.352,0.052,8.673,2.7,12.081,5.342
		c11.933,9.248,19.278-2.467,24.922-1.33C1525.936,670.552,1530.833,677.205,1530.752,683.731z M714.14,461.537
		c-0.513-0.47-1.07-1.236-1.822-1.628c-32.745-17.05-22.51,12.642-48.348-6.951c-3.601-2.731-7.165-4.238-11.834-4.784
		c-22.905-2.677-21.081-10.375-32.678-8.075c-9.654,1.914-18.427,0.625-26.319-5.322c-1.341-1.011-2.62-0.498-3.416-0.057
		c-5.98,3.321-12.824,4.37-18.908,7.176c-18.801,8.672-16.99-7.217-26.896-5.297c-9.343,1.811-15.933-10.863-28.389-12.96
		c0,0,14.594,13.206,18.815,20.246c7.792,12.997,11.143,8.128,15.213,12.361c7.771,8.08,15.766-4.042,30.646-2.975
		c12.567,0.901,24.21,4.218,33.621,13.193c5.663,5.401,3.893-2.895,21.075,1.669c9.716,2.581,25.726-21.696,42.487-2.113
		c6.155,7.192,21.51-7.567,35.73-3.52C713.879,462.718,714.448,462.917,714.14,461.537z M952.008,529.776
		c11.033,10.328,20.597,15.818,14.371,29.197c-2.328,5.002-0.562,8.606,5.118,9.111c6.002,0.534,11.454,2.958,17.776,3.161
		c5.268,0.169,29.353,0.399,27.002-4.691c-14.041-30.402-12.572-29.263-17.004-30.762c-28.153-9.523-20.414-37.859-32.273-25.581
		c-11.975,12.399-36.554,10.058-37.554,10.729c-5.066,3.4-10.559,3.613-16.29,2.406c-2.902-0.611-3.373,2.207-4.567,3.645
		c-1.513,1.825,1.07,2.104,1.887,2.92c6.361,6.346,15.61-4.992,20.502-2.987C939.373,530.364,945.659,523.832,952.008,529.776z
		 M1048.954,408.046c-10.236-1.694,6.944,7.296-2.088,18.143c-2.495,2.997-4.877,6.028-9.613,5.39
		c-1.567-0.211-4.933,1.561-4.131,2.32c3.106,2.937,3.615,7.144,6.218,10.336c4.794,5.876,12.368,9.203,15.117,16.998
		c0.719,2.039,3.828,2.528,5.651,1.34c9.586-6.246,17.849,2.016,21.529-3.725c7.378-11.511,10.376-0.491,16.078-2.372
		c6.699-2.21,10.407-0.618,13.887,5.631c2.647,4.753,8.248,5.498,11.658,1.33c8.483-10.369-18.952-5.783-22.244-16.68
		c-0.279-0.925-1.957-1.384-2.909-2.157c-17.434-14.154-4.403-7.027-17.239-22.281c-9.333-11.091-3.765-13.231-9.894-13.282
		C1063.585,408.975,1056.103,410.63,1048.954,408.046z M1876.339,959.767c-0.241,1-0.116,8.939,3.761,10.825
		c5.864,2.853,5.548,9.396,10.036,11.939c12.262,6.948,1.957,16.487,32.209,17.881c17.574,0.81,15.675-6.844,23.11-2.41
		c6.457,3.851,7.602,3.341,6.675,2.341c-1.789-1.93-0.269-6.024-4.458-6.407c-5.483-0.503-12.927-13.176-23.208-8.563
		c-0.875,0.393-2.287,0.4-3.114-0.042c-5.381-2.88-12.242-1.527-17.064-6.253C1898.533,973.44,1891.818,984.882,1876.339,959.767z
		 M2242.25,1183.987c-41.864-70.174-29.317-21.67-50.903-18.511c-3.773,0.552-1.999,4.325,0.464,4.653
		c5.187,0.691,8.71-5.963,12.282-2.393c6.973,6.971,32.639,16.011,35.894,17.839
		C2241.076,1186.188,2242.505,1186.708,2242.25,1183.987z M449.523,383.02c-8.811,3.358-10.502,3.905-10.291,6.046
		c0.227,2.3,1.214,4.405,4.128,5.393c14.534,4.928,7.649,15.893,26.088,12.663c15.412-2.7,46.444,18.412,41.979,12.61
		c-17.263-22.435-23.99-9.354-33.232-21.4C471.058,389.029,460.025,386.721,449.523,383.02z M1699.567,1021.541
		c-1.738,9.095,3.956,4.093,10.587,5.575c6.715,1.5,5.503-4.32,3.029-6.614c-6.082-5.64-0.688-9.607-11.887-21.285
		c-2.515-2.623-6.441-3.303-8.256-6.447c-4.218-7.309-17.92,3.029-24.391-8.436c-1.955-3.465-8.269-0.201-5.924,1.411
		c3.228,2.219,2.664,5.88,3.552,9.006c3.444,12.128,7.486,5.407,10.505,8.267c5.324,5.044,12.097-5.019,17.2,2.578
		C1697.458,1010.771,1703.217,1015.499,1699.567,1021.541z M1784.555,781.148c-4.59,2.213-3.905,5.566-3.636,9.594
		c0.457,6.844,11.343,4.05,14.112,9.837c4.747,9.92,8.192-3.478,18.236,1.622c1.531,0.778,2.534,4.369,4.165,2.378
		c1.702-2.077-3.238-5.887-5.527-7.427c-7.37-4.958-0.602-7.429-2.589-12.779C1805.569,774.285,1794.248,776.475,1784.555,781.148z
		 M2076.854,1081.347c-0.054,3.062,0.632,5.644-1.259,7.728c-0.793,0.874-1.286,1.981-0.779,2.887
		c1.496,2.668,2.804-2.81,6.957,0.787c5.824,5.047,6.589-4.088,12.22,1.848c5.931,6.253,9.526-4.18,16.14,3.042
		c2.918,3.189,6.807-7.026-0.97-12.138c-4.179-2.746-9.304-4.141-11.775-9.283c-2.667-5.55-6.935,3.671-14.915,0.881
		C2077.38,1075.318,2075.657,1076.808,2076.854,1081.347z M1644.195,725.235c7.172-6.539,12.389-4.07,14.57-0.765
		c5.424,8.219,11.816,4.64,13.038-2.396c0.805-4.637,3.424-7.578,6.647-10.429c0.464-0.41,2.022-0.507,1.14-1.721
		c-0.351-0.484-1.416-1-1.831-0.806c-6.144,2.873-13.704-0.386-19.418,4.622c-3.189,2.794-3.693-0.87-17.383-1.518
		c-2.471-0.117-4.946,0.299-6.967-1.702c-1-0.99-3.337-1.375-2.136,2.108C1633.767,718.169,1630.859,737.395,1644.195,725.235z
		 M2174.838,1134.499c-3.618-0.323,0.564,8.126,2.683,10.512c12.366,13.931,3.216,19.422,11.926,17.995
		c7.101-1.164,10.249-6.639,13.392-11.6c6.663-10.516,2.469-7.783-7.479-15.286c-4.276-3.225-9.975,6.191-20.268-1.576
		C2174.967,1134.452,2174.748,1134.486,2174.838,1134.499z M1670.054,1079.614c0.559-11.779-28.572-23.5-13.096,4.775
		c2.801,5.119,4.35,9.675,3.071,15.369c-1.491,6.636,0.732,5.101,6.704,11.779c6.081,6.8,18.978,1.327,6.432-5.853
		c-5.616-3.211-1.012-2.035-4.816-13.518C1666.363,1086.174,1667.708,1086.737,1670.054,1079.614z M1560.696,659.157
		c-8.093-13.237-13.735-9.081-22.229-17.582c-3.629-3.632-8.068,3.934-13.439,1.743c-5.214-2.127-19.504-0.146-23.187,2.736
		c-0.91,0.712,4.31,1.818,5.083,4.639c0.212,0.775,1.215,1.299,1.611,2.064c0.819,1.584,2.124,1.856,3.553,1.323
		c17.168-6.398,41.847,2.05,47.197,5.952C1560.087,660.617,1560.905,660.866,1560.696,659.157z M896.625,454.698
		c9.357-3.159,17.557,8.382,21.137-0.453c2.559-6.315,7.813-8.462,13.404-10.543c4.28-1.592,1.885-5.084-1.169-3.824
		c-3.626,1.495-7.14,2.845-11.114,1.188c-0.943-0.393-2.068-0.099-2.705,1.054c-3.549,6.435-10.548,5.413-14.893,3.946
		c-6.061-2.047-12.254-0.137-18.002-2.584c-1.836-0.782-3.685,1.21-4.155,2.531c-0.59,1.661,1.748,0.632,2.612,1.341
		C889.964,454.11,893.167,451.899,896.625,454.698z M1654.26,711.761c3.866,0.295,5.718-2.858,8.781-2.584
		c0.771,0.069,2.098-0.343,2.309-0.875c1.515-3.818-9.874-2.02-17.234-11.071c-7.561-9.3-16.088,2.768-21.787-2.108
		c-2.714-2.32-2.659,0.098-1.28,1.585c1.902,2.052,5.083,3.676,5.687,6.005c1.063,4.098,4.346,5.781,7.056,6.385
		C1643.459,710.361,1649.659,708.691,1654.26,711.761z M2126.307,1110.248c-0.373,0.137-0.634,0.233-0.895,0.329
		c6.107,8.553,15.316,32.824,23.188,21.592c4.837-6.901,10.792-6.089,6.348-8.047c-8.673-3.823-3.015-12.52-7.292-9.02
		C2141.668,1120.002,2128.135,1113.026,2126.307,1110.248z M1743.81,1016.155c1-0.256,9.871,1.72,1.941-6.113
		c-12.207-12.057-20.626,4.264-26.287-6.016c-2.791-5.067-16.519-10.239-12.161-3.658c5.003,7.558,4.173,15.899,10.79,12.487
		c1.344-0.693,2.768-0.02,4.162,0.088c6.498,0.503,13.451-1.854,19.241,3.166C1741.9,1016.459,1742.872,1016.155,1743.81,1016.155z
		 M1134.5,471.015c5.4-1.01,10.065-3.724,15.408-4.272c2.414-0.248,7.349-14.46,2.917-12.856c-4.289,1.552-9.72-0.207-12.919,4.541
		c-2.379,3.53-5.508,4.583-9.383,2.332c-1.072-0.623-2.759-1.583-3.138-0.098c-1.766,6.927-8.124,6.272-9.575,9.145
		C1117.865,469.828,1126.427,467.861,1134.5,471.015z M1338.939,701.523c13.441,8.342,7.997,6.576,22.166,26.641
		c2.637,3.735,6.273-0.055,9.38,0.815c3.472,0.972,0.17-6.791-2.552-7.814c-5.525-2.075-6.617-11.097-14.45-12.414
		c-2.871-0.483-5.085-2.546-5.636-5.675C1346.473,695.27,1329.356,695.575,1338.939,701.523z M1099.684,473.2
		c24.604-3.874,3.163-14.449,2.124-14.029c-5.473,2.21-11.075,1.789-16.691,2.138c-4.132,0.257-4.733,8.564-0.792,6.744
		C1086.762,466.928,1087.254,467.012,1099.684,473.2z M1999.962,1031.749c0.569-13.129-4.895-12.573-17.147-15.83
		c-5.734-1.525-3.526,2.683-1.895,3.591c12.028,6.698,1.302,15.233,17.521,16.8
		C2001.363,1036.592,1999.422,1033.126,1999.962,1031.749z M1746.64,1035.249c-4.927-4.018-1.538-8.985-5.727-11.429
		c-1.448-0.845-1.455-5.081-3.705-2.744c-2.29,2.379-8.015,3.977-5.752,8.273c3.19,6.053,8.139,11.066,14.661,14.046
		C1751.317,1045.77,1747.641,1036.064,1746.64,1035.249z M1650.193,975.637c-2.615,0.919-1.95,1.586-0.387,3.007
		c8.606,7.826,17.641-1.77,20.124,3.82c2.726,6.138,18.069,7.472,11.866,3.539c-3.037-1.925-5.558-4.162-6.859-7.722
		c-1.848-5.055-11.211,3.393-17.058-5.099C1656.03,970.498,1658.188,972.828,1650.193,975.637z M1969.103,1084.17
		c-0.171-9.387-7.346-0.19-14.779-5.41c-1.867-1.311-3.721-0.624-3.831,1.564c-0.223,4.432,11.368,14.045,15.825,13.127
		C1974.388,1091.789,1966.699,1090.084,1969.103,1084.17z M1551.463,641.144c-1.755,0.729-3.291,1.188-4.638,1.973
		c-1.734,1.01-0.977,2.435,0.384,2.567c12.735,1.239,13.746,16.007,17.492,12.454c6.021-5.712,5.701-0.75,0.643-11.38
		C1561.797,639.302,1556.62,645.962,1551.463,641.144z M1623.846,968.821c2.292-1.121,4.438-1.806,6.946-0.403
		c4.17,2.333,8.087-1.337,12.222-0.756c-0.192-3.403-4.032-7.834-10.351-8.674C1624.047,957.838,1617.326,972.01,1623.846,968.821z
		 M1568.783,707.773c0.691,2.908,10.796,2.594,13.544-0.892c4.842-6.14,4.829,3.909,13.992-5.558
		c4.01-4.144-7.096-0.783-10.44-2.586C1575.834,693.322,1583.379,707.773,1568.783,707.773z M2363.327,1257.436
		c-13.989,4.812-14.843,3.852-14.047,6.821c0.749,2.797,3.543,1.856,5.419,1.408c9.167-2.192,20.137-0.462,20.481-2.8
		c0.173-1.177-0.482-2.542-1.357-2.557C2370.354,1260.251,2367.716,1257.624,2363.327,1257.436z M966.804,452.1
		c4.488-6.03,9.807-4.433,12.134-11.42c1.865-5.601-1.529-3.219-2.529-3.293c-5.861-0.433-8.615,4.922-13.146,6.966
		C961.594,445.105,963.493,450.878,966.804,452.1z M1653.653,985.57c-5.675-1.015-2.152,0.914-2.31,6.159
		c-0.077,2.54,0.485,4.885,3.411,4.891c2.624,0.005,6.28,2.061,7.557,0.07C1665.139,992.277,1658.082,984.188,1653.653,985.57z
		 M1164.843,441.64c2.238-0.89-8.255-11.009-9.786-1.518c-0.837,5.188-7.942,10.048-11.617,10.879
		C1156.029,452.252,1156.82,444.833,1164.843,441.64z M1731.892,1003.806c1.721-0.622,4.658-0.234,4.823-2.38
		c0.305-3.955-9.503-8.536-13.929-2.557c-0.7,0.945-3.717,1.015-1.829,3.417C1723.017,1004.908,1722.118,1007.338,1731.892,1003.806
		z M1685.403,1119.571c0,5.715,0.061,6.808-0.31,8.248c-2.473,9.588,4.916,17.473,6.862,16.476
		c3.191-1.634,1.422-2.144-5.326-22.958C1686.482,1120.885,1686.072,1120.518,1685.403,1119.571z M1769.82,809.261
		c-0.862-1.206,0.077-4.607-2.351-3.994c-3.804,0.961-8.663,2.399-10.413,5.262c-1.432,2.342,4.529,0.617,8.482,4.531
		C1768.858,818.346,1769.171,812.866,1769.82,809.261z M1586.69,666.518c-1.824,0.161-2.46,3.593,0.356,2.713
		c11.377-3.557,8.641,9.815,15.058,5.395c2.202-1.516,0.603-2.602-0.338-3.753C1596.655,664.614,1593.599,665.91,1586.69,666.518z
		 M842.064,513.864c-0.298,0.103-0.596,0.206-0.894,0.309c0.361,0.559,0.591,1.343,1.104,1.641
		c8.771,5.097,8.188,17.82,17.582,8.529c1.001-0.99,2.126-1.571-0.578-1.473C849.651,523.219,844.993,514.565,842.064,513.864z
		 M1790.444,1141.329c1.243-0.501,3.184-0.286,3.746-1.959c0.21-0.624-0.943-2.459-1.437-2.445
		c-3.926,0.11-11.066-10.386-10.498-3.106C1782.473,1136.609,1787.456,1141.252,1790.444,1141.329z M961.591,448.35
		c-5.648-11.653-18.763-0.145-6.436,0.78C958.701,449.396,962.188,451.91,961.591,448.35z M1635.99,979.454
		c1-0.17,8.232-0.82,7.904-2.405c-1.128-5.463-6.475,2.653-14.882-0.941C1628.012,975.681,1617.91,976.25,1635.99,979.454z
		 M1736.906,1017.823c-3.705-5.515-8.922-3.043-7.828-0.318C1729.479,1018.505,1730.055,1029.323,1736.906,1017.823z
		 M1671.707,971.72c-0.43-3.925-10.562-4.78-10.283-0.811C1661.672,974.428,1671.998,974.376,1671.707,971.72z M1078.881,465.343
		c0.061-2.218-2.655-0.304-3.947-1.07c-1.756-1.042-6.397-1.527-8.49-0.31C1069.358,468.81,1078.802,468.216,1078.881,465.343z
		 M720.826,464.379c0.056,1.532-3.254-1.172-1.938,1.137c4.261,7.472,10.438,4.912,8.603,3.178
		C725.653,466.958,724.305,464.293,720.826,464.379z M1587.426,654.915c0.008-1.677-0.606-1.586-8.835,4.247
		c-1.376,0.976,1.917,4.004,2.443,3.522C1583.582,660.346,1584.647,656.817,1587.426,654.915z M1593.398,655.116
		c0.741,1.594,9.565,6.559,10.295,1.711C1604.039,654.528,1596.756,654.65,1593.398,655.116z M1720.7,1021.752
		c1.648-1.311,1.922-3.399,2.263-5.092c0.598-2.975-6.682-3.255-5.821,0.067C1717.679,1018.798,1718.643,1020.649,1720.7,1021.752z
		 M1392.275,644.047c-2.899,1.083-4.409,1.014,3.791,6.959C1398.553,652.808,1396.644,644.863,1392.275,644.047z M1724.124,1023.739
		c0.576,0.708-1.034,2.367,0.906,2.265c6.353-0.335,3.027-7.785,1.537-7.722C1723.397,1018.417,1725.214,1021.864,1724.124,1023.739
		z M1730.061,1030.986c-1.784-0.178,0.1-4.133-3.077-3.457c-1.578,0.336-4.4,0.782-3.899,2.614
		C1723.565,1031.896,1731.673,1034.949,1730.061,1030.986z M1839.718,1184.659c1.421,1.814,9.708,2.414,8.872,1.429
		C1844.929,1181.764,1838.934,1183.659,1839.718,1184.659z M1651.644,723.891c-9.051,0.898,6.101,6.203,5.271,3.022
		C1656.205,724.189,1653.588,724.32,1651.644,723.891z M1088.42,458.639c8.971-0.893-3.159-4.88-3.199-1.704
		C1085.201,458.56,1087.166,458.413,1088.42,458.639z M776.444,465.172c0.541-0.559,2.427,0.736,2.224-0.717
		c-0.307-2.196-6.293-2.695-6.102-1.591C772.869,464.612,774.506,465.121,776.444,465.172z M1697.956,1146.729
		c-2.954-8.741-4.438,1.487-0.718,2.396C1698.018,1149.316,1697.826,1147.768,1697.956,1146.729z M1828.009,815.191
		c0.635,3.934,4.569,2.59,4.396,0.953C1832.214,814.329,1827.669,813.081,1828.009,815.191z M945.471,442.769
		c11.328-4.619,2.235-6.262-0.318-1.111C944.995,441.977,945.412,442.582,945.471,442.769z M1589.263,663.862
		c1.127-0.734,3.08-0.492,3.396-2.356C1593.275,657.87,1583.937,663.155,1589.263,663.862z M2012.211,855.594
		c1.212-0.941,3.352,0.69,4.302-1.418c-2.202-0.633-6.478-1.82-6.667,0.513C2009.703,856.442,2011.23,855.513,2012.211,855.594z
		 M1719.478,664.884c0.111-3.263-10.337,0.381-4.233,1.53C1716.913,666.728,1718.29,666.005,1719.478,664.884z M1575.947,662.375
		c-1.592-0.013-2.846,3.135,0.957,3.869C1580.094,666.86,1578.743,664.108,1575.947,662.375z M2002.761,1056.456
		c0.992-0.15,2.183,0.325,2.665-1.035c-7.763-2.217-5.786-1.779-7.564-1.495C1998.997,1055.764,2000.999,1055.899,2002.761,1056.456
		z M1706.177,662.469c0.385-1.822-3.068-1.94-3.702,1.569C1702.242,665.332,1705.502,665.662,1706.177,662.469z M1756.389,1014.761
		c-0.596-1.597-5.02-2.054-4.682,1.221C1752.086,1019.671,1755.389,1015.664,1756.389,1014.761z M1134.626,457.453
		c2.815-1.043,2.815-4.247,1.243-3.433C1131.164,456.456,1132.991,457.601,1134.626,457.453z M1815.963,1163.624
		c-0.427-3.443-4.314-3.926-3.408-2.341C1813.605,1163.12,1815.296,1165.63,1815.963,1163.624z M1829.779,1179.553
		c-5.29-5.673-4.036-2.482-1.005,0.715C1829.148,1180.664,1829.655,1180.59,1829.779,1179.553z M1115.169,474.277
		c-2.728-3.705-6.722,0.523-1.226,0.349C1114.331,474.613,1114.713,474.413,1115.169,474.277z M1712.782,662.526
		c-6.265-0.748-4.643,1.887-3.094,1.492C1710.46,663.821,1711.159,663.333,1712.782,662.526z M1718.783,1024.218
		c0.276,0.114-0.37-0.152-1.016-0.418C1716.427,1029.007,1719.225,1027.31,1718.783,1024.218z M1711.82,667.394
		c-1.212-1.861-5.711-0.797-0.852,0.699C1711.312,668.199,1711.989,668.177,1711.82,667.394z M1993.403,1175.879
		c-0.146-0.011-0.291-0.021-0.437-0.032c-0.452,2.659-0.393,1.743,0.034,3.429
		C1993.698,1176.613,1993.535,1177.514,1993.403,1175.879z M1735.406,1036.112c-4.179-2.151-3.497-0.68-1.614,0.794
		C1733.887,1036.981,1734.279,1036.679,1735.406,1036.112z M2338.443,1260.356c-2.27-0.517-1.386-0.583-3.364-0.006
		C2336.899,1261.07,2336.001,1261.015,2338.443,1260.356z M1572.526,665.286c-0.712-3.415-3.386-1.365-0.823,0.276
		C1571.922,665.704,1572.492,665.299,1572.526,665.286z M1550.55,697.363c1.292,1.585,0.792,1.307,1.792,1.03
		C1551.098,696.8,1551.361,697.241,1550.55,697.363z"/>
	<path d="M1746.865,1050.165c-3.926,1.04-8.012,3.033-10.953-1.829c0.214-0.174,0.428-0.349,0.642-0.523
		c2.748,3.793,6.845,1.829,10.343,2.424L1746.865,1050.165z"/>
	<path d="M1993.9,1200.974c1.811,2.121,0.074,4.708,0.914,6.957c-1.81-0.045-1.493-1.076-1.51-6.449
		C1993.502,1201.313,1993.701,1201.144,1993.9,1200.974z"/>
	<path d="M1754.296,1022.524c0.415,0.555,1.065,1.057,1.201,1.674c0.414,1.87,2.563,1.092,3.318,2.344
		c-3.428,0.605-4.274-0.796-4.437-4.085C1754.379,1022.455,1754.296,1022.524,1754.296,1022.524z"/>
	<path d="M2359.521,1293.692c3.443-0.005,3.144,3.844,3.264,4.844c-1.394-0.219-0.891-1.62-1.464-2.351
		c-0.627-0.801-1.25-1.605-1.875-2.407C2359.446,1293.778,2359.521,1293.692,2359.521,1293.692z"/>
	<path d="M1721.348,1188.452c0.785,0.005-0.254-0.046,4.19,0.234c-0.13,1-3.258,1.801-4.2-0.221
		C1721.338,1188.464,1721.348,1188.452,1721.348,1188.452z"/>
	<path d="M1200.902,504.274c1.86-2.73,2.429-3.495,3.629-2.951c-2.007,2.798-1.239,1.847-3.014,3.499
		C1201.312,504.638,1201.107,504.456,1200.902,504.274z"/>
	<path d="M1783.038,1009.807c0.996-0.981,3.61-1.69,4.032-0.376c-1.362,0.103-2.724,0.206-4.087,0.309
		C1782.982,1009.74,1783.038,1009.807,1783.038,1009.807z"/>
	<path d="M1715.856,1160.944c2.669,0.031,1.552-0.027,4.147,0.222c-0.699,1.311-3.075,0.087-4.076-0.297
		C1715.924,1160.872,1715.856,1160.944,1715.856,1160.944z"/>
	<path d="M1185.933,446.119c-1.643,0.364-3.287,0.728-4.93,1.092C1182.252,445.068,1183.949,444.945,1185.933,446.119z"/>
	<path d="M1713.85,1161.896c0.861,0.526,1.722,1.051,2.583,1.577c-1.686,0.824-2.549,0.022-2.49-1.661
		C1713.944,1161.812,1713.85,1161.896,1713.85,1161.896z"/>
	<path d="M1987.103,1097.526c1.404-0.746,5.269,2.474,0.024,0.158C1987.126,1097.681,1987.103,1097.526,1987.103,1097.526z"/>
	<path d="M1848.94,1191.575c1.41,1.608,0.845,3.622,1.122,5.462C1848.459,1195.469,1849.148,1193.43,1848.94,1191.575z"/>
</g>
</svg>
